<?xml version="1.0" encoding="UTF-8"?><svg xmlns="http://www.w3.org/2000/svg" xmlns:xlink="http://www.w3.org/1999/xlink" width="375pt" zoomAndPan="magnify" viewBox="0 0 375 374.999991" height="374.999991pt" preserveAspectRatio="xMidYMid meet" version="1.2"><defs><g/></defs><g xml:id="surface1" id="surface1"><g style="fill:rgb(100%,56.858826%,30.198669%);fill-opacity:1;"><g transform="translate(95.155165, 203.2263)"><path style="stroke:none;" d="M -0.25 -5.125 C -0.175781 -4.25 -0.25 -3.394531 -0.46875 -2.5625 C -0.6875 -1.738281 -0.988281 -1.082031 -1.375 -0.59375 L -2.71875 -1.09375 C -2.351562 -1.5625 -2.070312 -2.148438 -1.875 -2.859375 C -1.675781 -3.566406 -1.609375 -4.285156 -1.671875 -5.015625 C -1.742188 -5.984375 -1.960938 -6.691406 -2.328125 -7.140625 C -2.691406 -7.585938 -3.140625 -7.789062 -3.671875 -7.75 C -4.066406 -7.71875 -4.378906 -7.5625 -4.609375 -7.28125 C -4.835938 -7.007812 -5 -6.675781 -5.09375 -6.28125 C -5.195312 -5.894531 -5.304688 -5.347656 -5.421875 -4.640625 C -5.566406 -3.742188 -5.722656 -3.019531 -5.890625 -2.46875 C -6.066406 -1.925781 -6.359375 -1.445312 -6.765625 -1.03125 C -7.179688 -0.625 -7.753906 -0.390625 -8.484375 -0.328125 C -9.109375 -0.285156 -9.675781 -0.40625 -10.1875 -0.6875 C -10.707031 -0.976562 -11.144531 -1.441406 -11.5 -2.078125 C -11.851562 -2.710938 -12.066406 -3.523438 -12.140625 -4.515625 C -12.191406 -5.191406 -12.15625 -5.867188 -12.03125 -6.546875 C -11.90625 -7.222656 -11.691406 -7.8125 -11.390625 -8.3125 L -10.015625 -7.875 C -10.285156 -7.375 -10.476562 -6.835938 -10.59375 -6.265625 C -10.71875 -5.703125 -10.757812 -5.15625 -10.71875 -4.625 C -10.644531 -3.675781 -10.414062 -2.984375 -10.03125 -2.546875 C -9.65625 -2.109375 -9.195312 -1.910156 -8.65625 -1.953125 C -8.269531 -1.984375 -7.960938 -2.140625 -7.734375 -2.421875 C -7.503906 -2.703125 -7.335938 -3.039062 -7.234375 -3.4375 C -7.128906 -3.832031 -7.023438 -4.378906 -6.921875 -5.078125 C -6.773438 -5.960938 -6.613281 -6.675781 -6.4375 -7.21875 C -6.269531 -7.757812 -5.984375 -8.238281 -5.578125 -8.65625 C -5.171875 -9.070312 -4.601562 -9.3125 -3.875 -9.375 C -3.28125 -9.414062 -2.71875 -9.285156 -2.1875 -8.984375 C -1.664062 -8.691406 -1.226562 -8.222656 -0.875 -7.578125 C -0.53125 -6.929688 -0.320312 -6.113281 -0.25 -5.125 Z M -0.25 -5.125 "/></g></g><g style="fill:rgb(100%,56.858826%,30.198669%);fill-opacity:1;"><g transform="translate(94.474873, 186.121757)"><path style="stroke:none;" d="M -0.265625 -10.53125 L 1.15625 -10.375 L 0.078125 -0.71875 L -1.046875 -0.84375 L -9.234375 -9.109375 L -10.03125 -1.96875 L -11.453125 -2.125 L -10.40625 -11.453125 L -9.296875 -11.328125 L -1.09375 -3.078125 Z M -0.265625 -10.53125 "/></g></g><g style="fill:rgb(100%,56.858826%,30.198669%);fill-opacity:1;"><g transform="translate(97.092811, 168.614862)"><path style="stroke:none;" d="M -1.984375 -7.109375 L 1.84375 -5.921875 L 1.34375 -4.34375 L -2.515625 -5.546875 L -11.125 -3.375 L -10.609375 -5.0625 L -3.640625 -6.8125 L -8.390625 -12.203125 L -7.90625 -13.765625 Z M -1.984375 -7.109375 "/></g></g><g style="fill:rgb(100%,56.858826%,30.198669%);fill-opacity:1;"><g transform="translate(102.82452, 152.075362)"><path style="stroke:none;" d="M -0.71875 -11.28125 C -0.226562 -11.789062 0.320312 -12.097656 0.9375 -12.203125 C 1.550781 -12.304688 2.1875 -12.179688 2.84375 -11.828125 C 3.738281 -11.347656 4.242188 -10.640625 4.359375 -9.703125 C 4.472656 -8.773438 4.179688 -7.675781 3.484375 -6.40625 L 0.84375 -1.53125 L -9.375 -7.09375 L -6.890625 -11.671875 C -6.253906 -12.835938 -5.53125 -13.609375 -4.71875 -13.984375 C -3.90625 -14.367188 -3.085938 -14.335938 -2.265625 -13.890625 C -1.722656 -13.597656 -1.320312 -13.222656 -1.0625 -12.765625 C -0.8125 -12.304688 -0.695312 -11.8125 -0.71875 -11.28125 Z M -7.40625 -7.890625 L -4.140625 -6.125 L -2.515625 -9.125 C -2.097656 -9.875 -1.914062 -10.519531 -1.96875 -11.0625 C -2.03125 -11.613281 -2.328125 -12.039062 -2.859375 -12.34375 C -3.390625 -12.625 -3.90625 -12.640625 -4.40625 -12.390625 C -4.90625 -12.140625 -5.363281 -11.640625 -5.78125 -10.890625 Z M 2.265625 -6.984375 C 2.710938 -7.816406 2.914062 -8.515625 2.875 -9.078125 C 2.832031 -9.648438 2.519531 -10.09375 1.9375 -10.40625 C 0.800781 -11.03125 -0.21875 -10.507812 -1.125 -8.84375 L -2.953125 -5.484375 L 0.4375 -3.625 Z M 2.265625 -6.984375 "/></g></g><g style="fill:rgb(100%,56.858826%,30.198669%);fill-opacity:1;"><g transform="translate(112.669694, 135.491312)"><path style="stroke:none;" d="M -0.375 -7.5625 L -0.09375 -4.53125 L 2.203125 -2.59375 L 1.125 -1.34375 L -7.75 -8.84375 L -6.671875 -10.09375 L -1.703125 -5.90625 L -2.59375 -14.921875 L -1.375 -16.359375 L -0.59375 -9.203125 L 7.703125 -9.109375 L 6.453125 -7.625 Z M -0.375 -7.5625 "/></g></g><g style="fill:rgb(100%,56.858826%,30.198669%);fill-opacity:1;"><g transform="translate(125.228468, 121.673773)"><path style="stroke:none;" d="M 5.390625 -7.953125 L 0.53125 -4.125 L 1.328125 -1.046875 L -0.015625 0.015625 L -3.0625 -12.375 L -1.78125 -13.390625 L 9.5625 -7.53125 L 8.203125 -6.453125 Z M 4.109375 -8.640625 L -1.390625 -11.5625 L 0.15625 -5.515625 Z M 4.109375 -8.640625 "/></g></g><g style="fill:rgb(100%,56.858826%,30.198669%);fill-opacity:1;"><g transform="translate(151.071561, 105.375767)"><path style="stroke:none;" d="M -2.640625 -11.453125 L -1.09375 -12.0625 L 3.171875 -1.25 L 1.625 -0.640625 Z M -2.640625 -11.453125 "/></g></g><g style="fill:rgb(100%,56.858826%,30.198669%);fill-opacity:1;"><g transform="translate(173.751068, 98.763588)"><path style="stroke:none;" d="M 9.03125 -6.796875 C 9.726562 -6.660156 10.289062 -6.363281 10.71875 -5.90625 C 11.144531 -5.445312 11.390625 -4.84375 11.453125 -4.09375 C 11.523438 -3.09375 11.207031 -2.289062 10.5 -1.6875 C 9.789062 -1.082031 8.710938 -0.71875 7.265625 -0.59375 L 1.75 -0.140625 L 0.796875 -11.71875 L 5.96875 -12.140625 C 7.300781 -12.253906 8.347656 -12.078125 9.109375 -11.609375 C 9.878906 -11.140625 10.304688 -10.4375 10.390625 -9.5 C 10.441406 -8.882812 10.34375 -8.347656 10.09375 -7.890625 C 9.851562 -7.429688 9.5 -7.066406 9.03125 -6.796875 Z M 2.546875 -10.53125 L 2.859375 -6.828125 L 6.265625 -7.109375 C 7.109375 -7.171875 7.742188 -7.375 8.171875 -7.71875 C 8.609375 -8.070312 8.800781 -8.554688 8.75 -9.171875 C 8.695312 -9.773438 8.425781 -10.210938 7.9375 -10.484375 C 7.457031 -10.765625 6.796875 -10.875 5.953125 -10.8125 Z M 7.078125 -1.9375 C 8.023438 -2.007812 8.722656 -2.222656 9.171875 -2.578125 C 9.617188 -2.929688 9.816406 -3.429688 9.765625 -4.078125 C 9.660156 -5.378906 8.660156 -5.953125 6.765625 -5.796875 L 2.96875 -5.484375 L 3.28125 -1.625 Z M 7.078125 -1.9375 "/></g></g><g style="fill:rgb(100%,56.858826%,30.198669%);fill-opacity:1;"><g transform="translate(193.038951, 97.927205)"><path style="stroke:none;" d="M 10.28125 -0.234375 L 10.109375 1.1875 L 1.734375 0.203125 L 3.09375 -11.34375 L 11.25 -10.375 L 11.078125 -8.9375 L 4.5625 -9.703125 L 4.15625 -6.15625 L 9.953125 -5.484375 L 9.78125 -4.09375 L 3.984375 -4.765625 L 3.546875 -1.015625 Z M 10.28125 -0.234375 "/></g></g><g style="fill:rgb(100%,56.858826%,30.198669%);fill-opacity:1;"><g transform="translate(210.734309, 100.680379)"><path style="stroke:none;" d="M 10.375 1.796875 L 9.9375 3.171875 L 0.6875 0.21875 L 1.03125 -0.859375 L 10.734375 -7.265625 L 3.875 -9.453125 L 4.3125 -10.828125 L 13.265625 -7.96875 L 12.921875 -6.890625 L 3.234375 -0.484375 Z M 10.375 1.796875 "/></g></g><g style="fill:rgb(100%,56.858826%,30.198669%);fill-opacity:1;"><g transform="translate(227.379161, 106.626858)"><path style="stroke:none;" d="M 11.109375 -7.140625 C 12.421875 -6.410156 13.28125 -5.523438 13.6875 -4.484375 C 14.101562 -3.441406 14.003906 -2.367188 13.390625 -1.265625 C 12.785156 -0.160156 11.929688 0.5 10.828125 0.71875 C 9.722656 0.9375 8.515625 0.679688 7.203125 -0.046875 L 4.6875 -1.4375 L 2.984375 1.640625 L 1.53125 0.84375 L 7.140625 -9.328125 Z M 7.859375 -1.328125 C 8.785156 -0.816406 9.597656 -0.625 10.296875 -0.75 C 10.992188 -0.882812 11.546875 -1.320312 11.953125 -2.0625 C 12.359375 -2.800781 12.425781 -3.5 12.15625 -4.15625 C 11.894531 -4.8125 11.300781 -5.394531 10.375 -5.90625 L 7.90625 -7.28125 L 5.390625 -2.703125 Z M 7.859375 -1.328125 "/></g></g><g style="fill:rgb(100%,56.858826%,30.198669%);fill-opacity:1;"><g transform="translate(243.48068, 116.4909)"><path style="stroke:none;" d="M 8.59375 -8.015625 L 9.890625 -7 L 2.671875 2.109375 L 1.375 1.09375 Z M 8.59375 -8.015625 "/></g></g><g style="fill:rgb(100%,56.858826%,30.198669%);fill-opacity:1;"><g transform="translate(252.757081, 124.253272)"><path style="stroke:none;" d="M 7.921875 6.5625 L 6.859375 7.53125 L 1.171875 1.296875 L 9.765625 -6.53125 L 15.296875 -0.46875 L 14.234375 0.5 L 9.828125 -4.34375 L 7.1875 -1.9375 L 11.109375 2.375 L 10.0625 3.328125 L 6.140625 -0.984375 L 3.359375 1.546875 Z M 7.921875 6.5625 "/></g></g><g style="fill:rgb(100%,56.858826%,30.198669%);fill-opacity:1;"><g transform="translate(264.330811, 137.887959)"><path style="stroke:none;" d="M 3.453125 6.015625 C 2.859375 5.023438 2.539062 3.992188 2.5 2.921875 C 2.457031 1.859375 2.6875 0.867188 3.1875 -0.046875 C 3.6875 -0.972656 4.421875 -1.726562 5.390625 -2.3125 C 6.347656 -2.894531 7.351562 -3.191406 8.40625 -3.203125 C 9.457031 -3.210938 10.445312 -2.945312 11.375 -2.40625 C 12.300781 -1.863281 13.066406 -1.097656 13.671875 -0.109375 C 14.140625 0.679688 14.4375 1.472656 14.5625 2.265625 C 14.6875 3.066406 14.632812 3.847656 14.40625 4.609375 L 12.9375 4.234375 C 13.28125 3.015625 13.113281 1.84375 12.4375 0.71875 C 11.988281 -0.0195312 11.414062 -0.585938 10.71875 -0.984375 C 10.03125 -1.378906 9.289062 -1.570312 8.5 -1.5625 C 7.71875 -1.5625 6.96875 -1.34375 6.25 -0.90625 C 5.519531 -0.46875 4.96875 0.09375 4.59375 0.78125 C 4.21875 1.476562 4.039062 2.222656 4.0625 3.015625 C 4.09375 3.816406 4.332031 4.585938 4.78125 5.328125 C 5.445312 6.441406 6.40625 7.140625 7.65625 7.421875 L 7.328125 8.875 C 6.535156 8.726562 5.804688 8.410156 5.140625 7.921875 C 4.484375 7.441406 3.921875 6.804688 3.453125 6.015625 Z M 3.453125 6.015625 "/></g></g><g style="fill:rgb(100%,56.858826%,30.198669%);fill-opacity:1;"><g transform="translate(273.391355, 154.316402)"><path style="stroke:none;" d="M 4.90625 9.328125 L 3.546875 9.8125 L 0.25 0.671875 L 1.3125 0.296875 L 12.296875 4.09375 L 9.859375 -2.671875 L 11.21875 -3.171875 L 14.40625 5.65625 L 13.34375 6.046875 L 2.359375 2.28125 Z M 4.90625 9.328125 "/></g></g><g style="fill:rgb(100%,56.858826%,30.198669%);fill-opacity:1;"><g transform="translate(278.856119, 171.094665)"><path style="stroke:none;" d="M 13.171875 9.96875 L 1.671875 11.625 L 1.484375 10.265625 L 9.0625 2.140625 L 0.484375 3.375 L 0.25 1.734375 L 11.75 0.078125 L 11.9375 1.421875 L 4.359375 9.546875 L 12.9375 8.3125 Z M 13.171875 9.96875 "/></g></g><g style="fill:rgb(100%,56.858826%,30.198669%);fill-opacity:1;"><g transform="translate(280.974688, 191.152081)"><path style="stroke:none;" d="M 2.296875 9.328125 L 2.703125 3.15625 L -0.109375 1.6875 L 0 -0.015625 L 11.25 6 L 11.140625 7.640625 L -0.796875 12.140625 L -0.6875 10.421875 Z M 3.65625 8.84375 L 9.515625 6.703125 L 3.984375 3.828125 Z M 3.65625 8.84375 "/></g></g><g style="fill:rgb(100%,56.858826%,30.198669%);fill-opacity:1;"><g transform="translate(271.648847, 224.222567)"><path style="stroke:none;" d="M -1.953125 9.40625 L 1.078125 4.015625 L -0.828125 1.46875 L 0 -0.015625 L 7.578125 10.265625 L 6.765625 11.703125 L -5.953125 10.609375 L -5.109375 9.09375 Z M -0.515625 9.5625 L 5.703125 10.140625 L 1.953125 5.171875 Z M -0.515625 9.5625 "/></g></g><g style="fill:rgb(100%,56.858826%,30.198669%);fill-opacity:1;"><g transform="translate(261.87214, 240.343823)"><path style="stroke:none;" d="M 0.984375 16.5 L -7.75 8.828125 L -6.84375 7.796875 L 4.265625 8.28125 L -2.25 2.5625 L -1.15625 1.3125 L 7.578125 8.984375 L 6.6875 10 L -4.4375 9.515625 L 2.078125 15.234375 Z M 0.984375 16.5 "/></g></g><g style="fill:rgb(100%,56.858826%,30.198669%);fill-opacity:1;"><g transform="translate(248.060492, 254.99259)"><path style="stroke:none;" d="M -5.734375 4.015625 C -4.773438 3.328125 -3.765625 2.910156 -2.703125 2.765625 C -1.640625 2.628906 -0.625 2.769531 0.34375 3.1875 C 1.3125 3.601562 2.128906 4.257812 2.796875 5.15625 C 3.453125 6.0625 3.832031 7.039062 3.9375 8.09375 C 4.039062 9.144531 3.863281 10.15625 3.40625 11.125 C 2.945312 12.101562 2.238281 12.9375 1.28125 13.625 C 0.351562 14.3125 -0.640625 14.722656 -1.703125 14.859375 C -2.765625 15.003906 -3.78125 14.863281 -4.75 14.4375 C -5.71875 14.019531 -6.53125 13.359375 -7.1875 12.453125 C -7.851562 11.546875 -8.238281 10.570312 -8.34375 9.53125 C -8.445312 8.488281 -8.269531 7.476562 -7.8125 6.5 C -7.351562 5.53125 -6.660156 4.703125 -5.734375 4.015625 Z M -4.859375 5.203125 C -5.535156 5.703125 -6.035156 6.3125 -6.359375 7.03125 C -6.679688 7.757812 -6.800781 8.507812 -6.71875 9.28125 C -6.632812 10.0625 -6.34375 10.789062 -5.84375 11.46875 C -5.351562 12.15625 -4.742188 12.65625 -4.015625 12.96875 C -3.296875 13.289062 -2.546875 13.40625 -1.765625 13.3125 C -0.992188 13.21875 -0.269531 12.921875 0.40625 12.421875 C 1.101562 11.921875 1.617188 11.3125 1.953125 10.59375 C 2.285156 9.875 2.40625 9.125 2.3125 8.34375 C 2.226562 7.5625 1.941406 6.828125 1.453125 6.140625 C 0.953125 5.460938 0.34375 4.96875 -0.375 4.65625 C -1.09375 4.34375 -1.84375 4.226562 -2.625 4.3125 C -3.414062 4.40625 -4.160156 4.703125 -4.859375 5.203125 Z M -4.859375 5.203125 "/></g></g><g style="fill:rgb(100%,56.858826%,30.198669%);fill-opacity:1;"><g transform="translate(231.002224, 266.532154)"><path style="stroke:none;" d="M -6.109375 15.359375 L -10.765625 4.71875 L -9.5 4.15625 L 0.359375 9.296875 L -3.125 1.359375 L -1.609375 0.703125 L 3.046875 11.34375 L 1.8125 11.890625 L -8.046875 6.75 L -4.578125 14.6875 Z M -6.109375 15.359375 "/></g></g><g style="fill:rgb(100%,56.858826%,30.198669%);fill-opacity:1;"><g transform="translate(212.014539, 273.802784)"><path style="stroke:none;" d="M 1.046875 11.71875 L -0.5625 12.109375 L -3.3125 0.8125 L -1.703125 0.421875 Z M 1.046875 11.71875 "/></g></g><g style="fill:rgb(100%,56.858826%,30.198669%);fill-opacity:1;"><g transform="translate(200.326874, 276.506803)"><path style="stroke:none;" d="M -12.515625 0.671875 L -12.03125 9.125 L -8.21875 1.84375 L -7.453125 1.8125 L -2.890625 8.578125 L -3.34375 0.171875 L -1.75 0.09375 L -1.125 11.703125 L -2.484375 11.78125 L -7.75 3.875 L -12.09375 12.28125 L -13.453125 12.359375 L -14.109375 0.75 Z M -12.515625 0.671875 "/></g></g><g style="fill:rgb(100%,56.858826%,30.198669%);fill-opacity:1;"><g transform="translate(177.692408, 276.581308)"><path style="stroke:none;" d="M -3.265625 11.28125 L -4.90625 11.0625 L -3.375 -0.453125 L -1.734375 -0.234375 Z M -3.265625 11.28125 "/></g></g><g style="fill:rgb(100%,56.858826%,30.198669%);fill-opacity:1;"><g transform="translate(165.745482, 274.656923)"><path style="stroke:none;" d="M -10.40625 -1.640625 L -9.984375 -3.015625 L -0.6875 -0.203125 L -1.015625 0.875 L -10.625 7.4375 L -3.75 9.515625 L -4.15625 10.890625 L -13.140625 8.171875 L -12.8125 7.09375 L -3.234375 0.53125 Z M -10.40625 -1.640625 "/></g></g><g style="fill:rgb(100%,56.858826%,30.198669%);fill-opacity:1;"><g transform="translate(149.013678, 268.970574)"><path style="stroke:none;" d="M -9.4375 -1.75 L -3.984375 1.171875 L -1.484375 -0.796875 L 0.015625 0 L -10.109375 7.796875 L -11.546875 7.03125 L -10.734375 -5.71875 L -9.203125 -4.90625 Z M -9.546875 -0.296875 L -10.015625 5.90625 L -5.109375 2.0625 Z M -9.546875 -0.296875 "/></g></g><g style="fill:rgb(100%,56.858826%,30.198669%);fill-opacity:1;"><g transform="translate(132.684302, 259.485504)"><path style="stroke:none;" d="M -5.25 -4.53125 C -4.351562 -3.789062 -3.707031 -2.925781 -3.3125 -1.9375 C -2.925781 -0.945312 -2.816406 0.0625 -2.984375 1.09375 C -3.148438 2.132812 -3.59375 3.09375 -4.3125 3.96875 C -5.03125 4.832031 -5.882812 5.441406 -6.875 5.796875 C -7.863281 6.160156 -8.882812 6.238281 -9.9375 6.03125 C -10.988281 5.832031 -11.960938 5.363281 -12.859375 4.625 C -13.566406 4.039062 -14.109375 3.390625 -14.484375 2.671875 C -14.867188 1.960938 -15.078125 1.210938 -15.109375 0.421875 L -13.625 0.296875 C -13.53125 1.554688 -12.984375 2.601562 -11.984375 3.4375 C -11.316406 3.988281 -10.585938 4.335938 -9.796875 4.484375 C -9.003906 4.628906 -8.238281 4.566406 -7.5 4.296875 C -6.769531 4.023438 -6.132812 3.566406 -5.59375 2.921875 C -5.0625 2.265625 -4.726562 1.546875 -4.59375 0.765625 C -4.46875 -0.00390625 -4.550781 -0.757812 -4.84375 -1.5 C -5.132812 -2.25 -5.613281 -2.898438 -6.28125 -3.453125 C -7.269531 -4.273438 -8.40625 -4.609375 -9.6875 -4.453125 L -9.84375 -5.953125 C -9.050781 -6.078125 -8.265625 -6.015625 -7.484375 -5.765625 C -6.703125 -5.523438 -5.957031 -5.113281 -5.25 -4.53125 Z M -5.25 -4.53125 "/></g></g><g style="fill:rgb(100%,56.858826%,30.198669%);fill-opacity:1;"><g transform="translate(118.704013, 246.891542)"><path style="stroke:none;" d="M -1.96875 -2.578125 C -1.519531 -2.035156 -1.21875 -1.441406 -1.0625 -0.796875 C -0.914062 -0.148438 -0.925781 0.484375 -1.09375 1.109375 L -2.5625 1.09375 C -2.28125 0 -2.453125 -0.914062 -3.078125 -1.65625 C -3.492188 -2.15625 -3.960938 -2.40625 -4.484375 -2.40625 C -5.003906 -2.414062 -5.566406 -2.171875 -6.171875 -1.671875 L -11.171875 2.515625 L -8.46875 5.734375 L -9.578125 6.65625 L -13.328125 2.171875 L -7.265625 -2.890625 C -6.285156 -3.710938 -5.347656 -4.09375 -4.453125 -4.03125 C -3.554688 -3.976562 -2.726562 -3.492188 -1.96875 -2.578125 Z M -1.96875 -2.578125 "/></g></g><g style="fill:rgb(100%,56.858826%,30.198669%);fill-opacity:1;"><g transform="translate(109.225123, 234.818909)"><path style="stroke:none;" d="M -7.015625 -6.5625 L -3.984375 -1.171875 L -0.828125 -1.46875 L 0 0.015625 L -12.703125 1.109375 L -13.515625 -0.328125 L -5.953125 -10.609375 L -5.109375 -9.09375 Z M -7.890625 -5.40625 L -11.640625 -0.421875 L -5.421875 -1.015625 Z M -7.890625 -5.40625 "/></g></g><g style="fill:rgb(0%,0%,0%);fill-opacity:1;"><g transform="translate(129.310544, 204.003899)"><path style="stroke:none;" d="M 11.53125 -10.53125 L 21.6875 -10.53125 L 16.703125 -27.578125 Z M 1.53125 0 L 12.21875 -32.4375 L 20.875 -32.4375 L 31.6875 0 L 24.765625 0 L 22.9375 -6.171875 L 10.234375 -6.171875 L 8.34375 0 Z M 1.53125 0 "/></g></g><g style="fill:rgb(0%,0%,0%);fill-opacity:1;"><g transform="translate(162.524546, 204.003899)"><path style="stroke:none;" d="M 18.234375 -16.59375 C 18.234375 -18.625 16.847656 -19.640625 14.078125 -19.640625 C 12.898438 -19.640625 11.84375 -19.328125 10.90625 -18.703125 C 9.96875 -18.085938 9.5 -17.238281 9.5 -16.15625 L 9.5 0 L 3.515625 0 L 3.515625 -23.59375 L 9.5 -23.59375 L 9.5 -21.515625 C 11.5 -23.265625 13.835938 -24.140625 16.515625 -24.140625 C 19.203125 -24.140625 21.15625 -23.453125 22.375 -22.078125 C 23.601562 -20.703125 24.21875 -18.984375 24.21875 -16.921875 L 24.21875 0 L 18.234375 0 Z M 18.234375 -16.59375 "/></g></g><g style="fill:rgb(0%,0%,0%);fill-opacity:1;"><g transform="translate(190.071079, 204.003899)"><path style="stroke:none;" d="M 12.96875 0.5 C 6.132812 0.5 2.71875 -2.046875 2.71875 -7.140625 L 2.71875 -16.4375 C 2.71875 -18.851562 3.613281 -20.734375 5.40625 -22.078125 C 7.207031 -23.429688 9.722656 -24.109375 12.953125 -24.109375 C 16.179688 -24.109375 18.695312 -23.429688 20.5 -22.078125 C 22.300781 -20.722656 23.203125 -18.84375 23.203125 -16.4375 L 23.203125 -7.140625 C 23.203125 -3.347656 21.398438 -0.972656 17.796875 -0.015625 C 16.453125 0.328125 14.84375 0.5 12.96875 0.5 Z M 12.96875 -3.640625 C 15.8125 -3.640625 17.234375 -4.71875 17.234375 -6.875 L 17.234375 -16.703125 C 17.234375 -17.859375 16.875 -18.679688 16.15625 -19.171875 C 15.4375 -19.671875 14.375 -19.921875 12.96875 -19.921875 C 10.125 -19.921875 8.703125 -18.847656 8.703125 -16.703125 L 8.703125 -6.875 C 8.703125 -5.71875 9.054688 -4.890625 9.765625 -4.390625 C 10.472656 -3.890625 11.539062 -3.640625 12.96875 -3.640625 Z M 12.96875 -3.640625 "/></g></g><g style="fill:rgb(0%,0%,0%);fill-opacity:1;"><g transform="translate(215.99206, 204.003899)"><path style="stroke:none;" d="M 0.828125 0 L 11.265625 -16.4375 L 1.09375 -32.4375 L 7.890625 -32.4375 L 14.703125 -21.90625 L 21.296875 -32.4375 L 28.5 -32.4375 L 18.234375 -16.453125 L 28.875 0 L 21.6875 0 L 14.703125 -11.015625 L 7.640625 0 Z M 0.828125 0 "/></g></g></g></svg>